<svg width="26" height="26" viewBox="0 0 26 26" fill="none" xmlns="http://www.w3.org/2000/svg">
<g id="colabore">
<path id="Vector" d="M12.1875 2.43741C10.8509 2.43741 9.75 3.53835 9.75 4.87491L9.763 4.74166L8.96269 9.54353L7.42706 13.7458C7.39781 13.784 7.36287 13.8124 7.3125 13.8124H6.5V12.9999H2.4375V23.5624H6.5V21.1249H9.68987C11.0256 21.1249 12.2289 20.4773 13 19.4715C13.7719 20.4773 14.9744 21.1249 16.3101 21.1249H19.5V23.5624H23.5625V12.9999H19.5V13.8124H18.6875C18.6363 13.8124 18.6022 13.784 18.5737 13.7458L17.0373 9.54353L16.237 4.74166L16.25 4.87491C16.25 3.53835 15.1491 2.43741 13.8125 2.43741C13.5363 2.43741 13.2535 2.49103 13 2.62185C12.7476 2.49693 12.4691 2.43372 12.1875 2.43741ZM12.1591 4.07541C12.1753 4.19241 12.1875 4.45891 12.1875 4.87491V17.4183C12.0811 18.0029 11.7727 18.5316 11.3162 18.9121C10.8597 19.2925 10.2841 19.5006 9.68987 19.4999H6.5V15.4374H7.3125C7.62679 15.437 7.93535 15.3533 8.20679 15.1948C8.47824 15.0364 8.70288 14.8089 8.85788 14.5355L8.89038 14.4754L10.5373 9.95628L11.375 4.94153V4.87491C11.375 4.42803 11.7179 4.09085 12.1591 4.07541ZM13.8409 4.07541C14.2821 4.09166 14.625 4.42722 14.625 4.87491V4.94153L15.4627 9.95628L17.1104 14.4754L17.1421 14.5363C17.2973 14.8096 17.522 15.0368 17.7934 15.1951C18.0648 15.3533 18.3733 15.4369 18.6875 15.4374H19.5V19.4999H16.3101C15.7158 19.5005 15.1401 19.2924 14.6836 18.9117C14.2271 18.5311 13.9188 18.0023 13.8125 17.4175V4.87491C13.8125 4.45891 13.8255 4.19241 13.8409 4.07541ZM4.0625 14.6249H4.875V21.9374H4.0625V14.6249ZM21.125 14.6249H21.9375V21.9374H21.125V14.6249Z" fill="#FF6338"/>
</g>
</svg>
