<svg width="26" height="26" viewBox="0 0 26 26" fill="none" xmlns="http://www.w3.org/2000/svg">
  <g id="enviar-cifra">
    <g id="Group">
      <path id="Vector" d="M17.8468 5.85866L20.1413 8.15208M19.3223 3.83825L13.118 10.0425C12.7975 10.3626 12.5788 10.7705 12.4897 11.2147L11.9166 14.0833L14.7853 13.5092C15.2295 13.4203 15.6368 13.2026 15.9575 12.8819L22.1617 6.67766C22.3481 6.49122 22.496 6.26989 22.5969 6.02629C22.6978 5.7827 22.7498 5.52162 22.7498 5.25795C22.7498 4.99429 22.6978 4.73321 22.5969 4.48961C22.496 4.24602 22.3481 4.02468 22.1617 3.83825C21.9753 3.65181 21.7539 3.50392 21.5103 3.40302C21.2667 3.30212 21.0057 3.25018 20.742 3.25018C20.4783 3.25018 20.2173 3.30212 19.9737 3.40302C19.7301 3.50392 19.5087 3.65181 19.3223 3.83825Z"
        stroke="#FF6338"
        stroke-width="2"
        stroke-linecap="round"
        stroke-linejoin="round" />
      <path id="Vector_2"
        d="M20.5833 16.25V19.5C20.5833 20.0746 20.355 20.6257 19.9487 21.0321C19.5424 21.4384 18.9913 21.6667 18.4166 21.6667H6.49998C5.92534 21.6667 5.37424 21.4384 4.96791 21.0321C4.56159 20.6257 4.33331 20.0746 4.33331 19.5V7.58332C4.33331 7.00869 4.56159 6.45759 4.96791 6.05126C5.37424 5.64493 5.92534 5.41666 6.49998 5.41666H9.74998"
        stroke="#FF6338"
        stroke-width="2"
        stroke-linecap="round"
        stroke-linejoin="round" />
    </g>
  </g>
</svg>
